<svg id="Слой_1" data-name="Слой 1" xmlns="http://www.w3.org/2000/svg" viewBox="0 0 625.69 130"><defs><style>.cls-1{fill:#e41d13;}</style></defs><path class="cls-1" d="M55.65,14.81q-38,0-38,33.22v82H0V47.91Q0,27.12,13.48,14.28,28.44,0,55.65,0h570V14.81ZM23.78,63.92V48.14q0-12.14,7.35-19.58,8.34-8.34,24.52-8.34h570V35H61.78q-12.51,0-16.3,2.73t-3.8,11.35H71.09V63.92Zm17.9,19.86V130H23.78V69H71.09V83.78Z"/><path class="cls-1" d="M77.76,130V48.64h8V130Zm10.85,0V48.64h7.91V130Z"/><path class="cls-1" d="M134.15,130q-16.84,0-26.84-10t-10-27V48.64h8.47V92.93q0,27.81,28.39,27.8h7.77V130Zm0-12.54q-25.65,0-25.65-24.45V48.64h8.25V92.85q0,8.36,3.44,11.73t11.7,3.61h10.05v9.27Z"/><path class="cls-1" d="M235.17,129.77v-44q0-13.29-4.29-19.83-5.19-8-17.72-8-8.91,0-13.31,3.91T193.3,76.1q-1.92-10.16-7.22-14.4-4.74-3.8-13.54-3.8-12.3,0-17.38,8.12-4.07,6.53-4.06,19.71v44h-8.48V85.65q0-17.37,6-26.18,7.13-10.83,24-10.83,13.44,0,20.68,6.1,7.11-6.1,20-6.1,17.17,0,24.4,10.49,6,8.7,6,26.52v44.12Zm-51.87,0V85.67q0-15.33-10.73-15.34c-3.47,0-6.14,1.74-8,5.19a22.44,22.44,0,0,0-2.14,10.15v44.1h-8.48V85.59q0-9.72,4.18-16.39a16,16,0,0,1,14.47-8.13c5.49,0,9.53,1.17,12.09,3.5q3.27,3.06,5.53,11.3a39.81,39.81,0,0,1,1.59,9.72v44.18Zm40.68,0V85.67q0-15.33-10.73-15.34c-3.47,0-6.14,1.74-8,5.19a22.44,22.44,0,0,0-2.14,10.15v44.1H194.6V85.59A34.49,34.49,0,0,1,196.3,76q4.29-14.91,16.95-14.91,19.2,0,19.21,24.52v44.18Z"/><path class="cls-1" d="M266.81,130H244.09V48.64h22.72q16.83,0,26.89,11.65,9.6,11.1,9.61,28.18t-9.5,28.86Q283.53,130,266.81,130Zm.07-72.1H252.57v62.83h14.31a25.73,25.73,0,0,0,20.85-9.7q7.44-9.14,7.44-22.56t-7.66-21.94Q279.84,57.91,266.88,57.9Zm-.07,59.56H255.39V61.18h11.42q11.64,0,18.64,8.59,6.68,7.91,6.67,19.77t-6.67,19.67Q278.44,117.46,266.81,117.46Zm0-47h-3.17v37.74h3.17a16.24,16.24,0,0,0,12.65-5.39c3-3.45,4.52-7.86,4.52-13.26A20.27,20.27,0,0,0,279.29,76,15.48,15.48,0,0,0,266.81,70.45Z"/><path class="cls-1" d="M304,130V48.64h8V130Zm10.85,0V48.64h7.91V130Z"/><path class="cls-1" d="M335.62,130q-13.11,0-13.11-10a19,19,0,0,1,2.62-8.82q2.14-4,23.48-40.68H324.32V61.18h39.31l-31,54.37a5.07,5.07,0,0,0-.83,2.43q0,2.74,3.84,2.75H375V130Zm37.63-63q-.33.9-8.47,15.53l-14.24,25.65H375v9.27H335.44q7-12.55,21-37.07,3.3-5.52,9.45-16.8a9.09,9.09,0,0,0,.84-3c0-1.81-1.35-2.73-4.06-2.73H324.32V48.64h38.42q12.88,0,12.88,10.09Q375.62,61.91,373.25,67Z"/><path class="cls-1" d="M375.51,130V48.64h8V130Zm10.85,0V48.64h7.91V130Z"/><path class="cls-1" d="M487.49,129.77v-44q0-13.29-4.28-19.83-5.2-8-17.72-8-8.91,0-13.32,3.91T445.63,76.1q-1.92-10.16-7.23-14.4-4.74-3.8-13.54-3.8-12.3,0-17.37,8.12-4.07,6.53-4.07,19.71v44H395V85.65q0-17.37,6-26.18,7.11-10.83,23.95-10.83,13.46,0,20.68,6.1,7.13-6.1,20-6.1,17.18,0,24.41,10.49,6,8.7,6,26.52v44.12Zm-51.86,0V85.67q0-15.33-10.74-15.34c-3.46,0-6.14,1.74-8,5.19a22.44,22.44,0,0,0-2.15,10.15v44.1h-8.47V85.59q0-9.72,4.18-16.39a16,16,0,0,1,14.46-8.13q8.25,0,12.09,3.5,3.28,3.06,5.54,11.3a40.21,40.21,0,0,1,1.58,9.72v44.18Zm40.68,0V85.67q0-15.33-10.74-15.34c-3.46,0-6.14,1.74-8,5.19a22.44,22.44,0,0,0-2.15,10.15v44.1h-8.47V85.59A34.43,34.43,0,0,1,448.62,76q4.29-14.91,16.95-14.91,19.21,0,19.21,24.52v44.18Z"/><path class="cls-1" d="M535,130H533q-16.83,0-27.12-12.67-9.72-11.77-9.72-28.86,0-18.1,10.34-29T535,48.64q16.84,0,27,11.54,9.72,11.1,9.72,28.18t-9.61,29Q551.8,130,535,130ZM533,57.9q-13.11,0-20.85,8.63t-7.74,21.94q0,13.43,7.57,22.56,8,9.7,21,9.7H535a25.84,25.84,0,0,0,21-9.81q7.46-9.14,7.46-22.45,0-14.32-8-22.44T533,57.9Zm0,59.56q-11.74,0-18.87-8.14-6.66-7.8-6.67-19.66t6.67-19.89A23.51,23.51,0,0,1,533,61.18H535q11.64,0,18.76,8.59,6.66,7.91,6.67,19.77,0,12.88-7.29,20.4T533,117.46Zm0-47A15.78,15.78,0,0,0,520.38,76a20.27,20.27,0,0,0-4.75,13.65q0,8.86,5.14,13.7T535,108.19a15.88,15.88,0,0,0,12.66-5.5q4.64-5.18,4.63-13.15,0-9-5.08-14T533,70.45Z"/><path class="cls-1" d="M595.63,129.89H572.24V48.64h23.39a32.48,32.48,0,0,1,20.79,6.89,24.5,24.5,0,0,1,4.19,34.13A22.64,22.64,0,0,1,625.69,104a23.26,23.26,0,0,1-9.38,19.21A33,33,0,0,1,595.63,129.89Zm0-72h-15.1v62.72h15.14q8.93,0,14.58-3.6A13.62,13.62,0,0,0,617,104.63a15,15,0,0,0-2.83-9,14.72,14.72,0,0,0-8.92-5.74Q617,85.83,617,74.57a14.6,14.6,0,0,0-6.65-12.84Q604.49,57.91,595.59,57.9Zm1.85,30.29h-14V61.07h14A20.11,20.11,0,0,1,609,64.36,12.07,12.07,0,0,1,609.08,85,20.78,20.78,0,0,1,597.44,88.19Zm0,29.15h-14V91.47h14A22.34,22.34,0,0,1,609,94.4q5.87,3.63,5.87,10.06t-6,9.94A21.61,21.61,0,0,1,597.44,117.34Zm.07-47H591.9v8.59h5.61q8.85,0,8.86-4.23T597.51,70.33Zm0,30.29H591.9v7.46h5.61q8.85,0,8.86-3.68,0-2-3.59-3.11A21.57,21.57,0,0,0,597.51,100.62Z"/></svg>