<?xml version="1.0" encoding="utf-8"?>
<svg xmlns="http://www.w3.org/2000/svg" style=" background: none; display: block; shape-rendering: crispedges; animation-play-state: running; animation-delay: 0s;" viewBox="0 0 5070" width="300" height="40" preserveAspectRatio="xMidYMid">
<style type="text/css" style="animation-play-state: running; animation-delay: 0s;">
  text {
    text-anchor: middle; font-size: 45px; opacity: 0;
  }
</style>
<g style="transform-origin: 144px 20px; transform: scale(1.09756); animation-play-state: running; animation-delay: 0s;">
<g transform="translate(144,20)" style="animation-play-state: running; animation-delay: 0s;">
  <g transform="translate(-3,2)" style="animation-play-state: running; animation-delay: 0s;"><g class="path" style="transform: scale(0.91); transform-origin: -116.81px -3.17521px; animation: 1s linear -0.352857s infinite normal forwards running breath-ed3adee8-5f50-4770-b133-22f5b96c4818;"><path d="M18.12-28.29L17.67-23.90L8.94-23.90L8.69-16.36L16.52-16.36L16.07-12.01L8.57-12.01L8.53-10.66L9.02 0L3.28 0L3.77-9.96L3.28-28.29L18.12-28.29" fill="#e15e67" stroke="none" stroke-width="none" transform="translate(-127.510009765625,10.969791346958711)" style="fill: rgb(225, 94, 103); animation-play-state: running; animation-delay: 0s;"></path></g><g class="path" style="transform: scale(0.91); transform-origin: -103.2px -3.28021px; animation: 1s linear -0.325714s infinite normal forwards running breath-ed3adee8-5f50-4770-b133-22f5b96c4818;"><path d="M21.40-27.47L27.22-28.50L26.65-10.66L27.14 0L21.40 0L21.89-9.96L21.40-27.47" fill="#e15e67" stroke="none" stroke-width="none" transform="translate(-127.510009765625,10.969791346958711)" style="fill: rgb(254, 217, 177); animation-play-state: running; animation-delay: 0s;"></path></g><g class="path" style="transform: scale(0.91); transform-origin: -86.76px -3.28021px; animation: 1s linear -0.298571s infinite normal forwards running breath-ed3adee8-5f50-4770-b133-22f5b96c4818;"><path d="M47.27 0L33.78 0L34.28-9.96L33.78-27.47L39.61-28.50L39.03-10.66L39.32-4.02L47.72-4.67L47.27 0" fill="#e15e67" stroke="none" stroke-width="none" transform="translate(-127.510009765625,10.969791346958711)" style="fill: rgb(225, 94, 103); animation-play-state: running; animation-delay: 0s;"></path></g><g class="path" style="transform: scale(0.91); transform-origin: -64.125px -3.32021px; animation: 1s linear -0.271429s infinite normal forwards running breath-ed3adee8-5f50-4770-b133-22f5b96c4818;"><path d="M57.97-28.58L63.14-12.79L63.55-12.79L69.54-28.37L75.19-28.21L75.36-10.58L76.14 0L70.60 0L70.81-10.66L70.36-21.44L65.44-7.87L60.39-7.63L55.80-21.44L55.43-10.66L55.72 0L50.63 0L51.21-9.96L51.45-27.55L57.97-28.58" fill="#e15e67" stroke="none" stroke-width="none" transform="translate(-127.510009765625,10.969791346958711)" style="fill: rgb(254, 217, 177); animation-play-state: running; animation-delay: 0s;"></path></g><g class="path" style="transform: scale(0.91); transform-origin: -34.275px -2.95021px; animation: 1s linear -0.244286s infinite normal forwards running breath-ed3adee8-5f50-4770-b133-22f5b96c4818;"><path d="M90.28 0.45L90.28 0.45L90.28 0.45Q87.37 0.45 81.88 0L81.88 0L82.37-9.96L81.88-28.29L92.82-28.29L92.82-28.29Q98.36-28.29 101.48-24.97L101.48-24.97L101.48-24.97Q104.59-21.65 104.59-15.74L104.59-15.74L104.59-15.74Q104.59-8.28 100.74-3.92L100.74-3.92L100.74-3.92Q96.88 0.45 90.28 0.45zM91.35-23.86L91.35-23.86L91.35-23.86Q88.64-23.86 87.54-23.82L87.54-23.82L87.13-10.66L87.41-4.02L87.41-4.02Q90.86-3.77 92.05-3.77L92.05-3.77L92.05-3.77Q95.28-3.77 97.15-6.40L97.15-6.40L97.15-6.40Q99.02-9.02 99.02-14.02L99.02-14.02L99.02-14.02Q99.02-19.02 97.19-21.44L97.19-21.44L97.19-21.44Q95.37-23.86 91.35-23.86" fill="#e15e67" stroke="none" stroke-width="none" transform="translate(-127.510009765625,10.969791346958711)" style="fill: rgb(225, 94, 103); animation-play-state: running; animation-delay: 0s;"></path></g><g class="path" style="transform: scale(0.91); transform-origin: -15.5px -3.28021px; animation: 1s linear -0.217143s infinite normal forwards running breath-ed3adee8-5f50-4770-b133-22f5b96c4818;"><path d="M109.10-27.47L114.92-28.50L114.35-10.66L114.84 0L109.10 0L109.59-9.96L109.10-27.47" fill="#e15e67" stroke="none" stroke-width="none" transform="translate(-127.510009765625,10.969791346958711)" style="fill: rgb(254, 217, 177); animation-play-state: running; animation-delay: 0s;"></path></g><g class="path" style="transform: scale(0.91); transform-origin: 1.98999px -3.15521px; animation: 1s linear -0.19s infinite normal forwards running breath-ed3adee8-5f50-4770-b133-22f5b96c4818;"><path d="M119.11 0.25L119.80-4.18L133.00-23.70L119.64-22.80L120.62-28.45L129.97-28.00L139.36-28.50L138.74-24.11L125.50-4.51L139.89-5.41L139.07 0.25L129.19-0.21L119.11 0.25" fill="#e15e67" stroke="none" stroke-width="none" transform="translate(-127.510009765625,10.969791346958711)" style="fill: rgb(225, 94, 103); animation-play-state: running; animation-delay: 0s;"></path></g><g class="path" style="transform: scale(0.91); transform-origin: 19.11px -3.28021px; animation: 1s linear -0.162857s infinite normal forwards running breath-ed3adee8-5f50-4770-b133-22f5b96c4818;"><path d="M143.71-27.47L149.53-28.50L148.95-10.66L149.45 0L143.71 0L144.20-9.96L143.71-27.47" fill="#e15e67" stroke="none" stroke-width="none" transform="translate(-127.510009765625,10.969791346958711)" style="fill: rgb(254, 217, 177); animation-play-state: running; animation-delay: 0s;"></path></g><g class="path" style="transform: scale(0.91); transform-origin: 40.71px -3.32021px; animation: 1s linear -0.135714s infinite normal forwards running breath-ed3adee8-5f50-4770-b133-22f5b96c4818;"><path d="M162.81-28.58L167.98-12.79L168.39-12.79L174.37-28.37L180.03-28.21L180.20-10.58L180.97 0L175.44 0L175.64-10.66L175.19-21.44L170.27-7.87L165.23-7.63L160.64-21.44L160.27-10.66L160.56 0L155.47 0L156.05-9.96L156.29-27.55L162.81-28.58" fill="#e15e67" stroke="none" stroke-width="none" transform="translate(-127.510009765625,10.969791346958711)" style="fill: rgb(225, 94, 103); animation-play-state: running; animation-delay: 0s;"></path></g><g class="path" style="transform: scale(0.91); transform-origin: 69.475px -3.15521px; animation: 1s linear -0.108571s infinite normal forwards running breath-ed3adee8-5f50-4770-b133-22f5b96c4818;"><path d="M198.19-28.70L198.19-28.70L198.19-28.70Q203.03-28.70 206.17-25.01L206.17-25.01L206.17-25.01Q209.31-21.32 209.31-15.62L209.31-15.62L209.31-15.62Q209.31-8.41 205.57-3.98L205.57-3.98L205.57-3.98Q201.84 0.45 195.78 0.45L195.78 0.45L195.78 0.45Q191.06 0.45 187.86-3.34L187.86-3.34L187.86-3.34Q184.66-7.13 184.66-12.71L184.66-12.71L184.66-12.71Q184.66-19.68 188.48-24.19L188.48-24.19L188.48-24.19Q192.29-28.70 198.19-28.70zM203.73-13.33L203.73-13.33L203.73-13.33Q203.73-23.70 196.92-23.70L196.92-23.70L196.92-23.70Q193.81-23.70 192.02-21.38L192.02-21.38L192.02-21.38Q190.24-19.07 190.24-14.45L190.24-14.45L190.24-14.45Q190.24-9.84 192.15-6.87L192.15-6.87L192.15-6.87Q194.05-3.90 197.19-3.90L197.19-3.90L197.19-3.90Q200.33-3.90 202.03-6.42L202.03-6.42L202.03-6.42Q203.73-8.94 203.73-13.33" fill="#e15e67" stroke="none" stroke-width="none" transform="translate(-127.510009765625,10.969791346958711)" style="fill: rgb(254, 217, 177); animation-play-state: running; animation-delay: 0s;"></path></g><g class="path" style="transform: scale(0.91); transform-origin: 95.715px -2.95021px; animation: 1s linear -0.0814286s infinite normal forwards running breath-ed3adee8-5f50-4770-b133-22f5b96c4818;"><path d="M213.82-28.29L222.71-28.29L222.71-28.29Q226.65-28.29 228.94-26.51L228.94-26.51L228.94-26.51Q231.24-24.72 231.24-21.73L231.24-21.73L231.24-21.73Q231.24-16.93 227.30-15.05L227.30-15.05L227.30-15.05Q232.63-13.20 232.63-8.24L232.63-8.24L232.63-8.24Q232.63-4.51 229.44-2.03L229.44-2.03L229.44-2.03Q226.24 0.45 221.40 0.45L221.40 0.45L221.40 0.45Q218.86 0.45 213.82 0L213.82 0L214.31-9.96L213.82-28.29zM222.18-12.18L222.18-12.18L218.86-12.18L218.82-10.66L219.10-3.98L219.10-3.98Q221.48-3.77 222.75-3.77L222.75-3.77L222.75-3.77Q224.93-3.77 226.14-4.86L226.14-4.86L226.14-4.86Q227.35-5.95 227.35-8.04L227.35-8.04L227.35-8.04Q227.35-10.13 226.12-11.15L226.12-11.15L226.12-11.15Q224.89-12.18 222.18-12.18zM221.24-24.15L221.24-24.15L219.23-24.15L218.98-16.15L221.65-16.15L221.65-16.15Q223.74-16.15 224.84-17.28L224.84-17.28L224.84-17.28Q225.95-18.41 225.95-20.50L225.95-20.50L225.95-20.50Q225.95-24.15 221.24-24.15" fill="#e15e67" stroke="none" stroke-width="none" transform="translate(-127.510009765625,10.969791346958711)" style="fill: rgb(225, 94, 103); animation-play-state: running; animation-delay: 0s;"></path></g><g class="path" style="transform: scale(0.91); transform-origin: 111.01px 8.05979px; animation: 1s linear -0.0542857s infinite normal forwards running breath-ed3adee8-5f50-4770-b133-22f5b96c4818;"><path d="M235.55-2.75L235.55-2.75L235.55-2.75Q235.55-4.06 236.51-5.06L236.51-5.06L236.51-5.06Q237.47-6.07 238.83-6.07L238.83-6.07L238.83-6.07Q241.49-6.07 241.49-3.36L241.49-3.36L241.49-3.36Q241.49-1.80 240.53-0.78L240.53-0.78L240.53-0.78Q239.56 0.25 238.27 0.25L238.27 0.25L238.27 0.25Q236.98 0.25 236.26-0.59L236.26-0.59L236.26-0.59Q235.55-1.44 235.55-2.75" fill="#e15e67" stroke="none" stroke-width="none" transform="translate(-127.510009765625,10.969791346958711)" style="fill: rgb(254, 217, 177); animation-play-state: running; animation-delay: 0s;"></path></g><g class="path" style="transform: scale(0.91); transform-origin: 119.415px 8.05979px; animation: 1s linear -0.0271429s infinite normal forwards running breath-ed3adee8-5f50-4770-b133-22f5b96c4818;"><path d="M243.95-2.75L243.95-2.75L243.95-2.75Q243.95-4.06 244.91-5.06L244.91-5.06L244.91-5.06Q245.88-6.07 247.23-6.07L247.23-6.07L247.23-6.07Q249.90-6.07 249.90-3.36L249.90-3.36L249.90-3.36Q249.90-1.80 248.93-0.78L248.93-0.78L248.93-0.78Q247.97 0.25 246.68 0.25L246.68 0.25L246.68 0.25Q245.39 0.25 244.67-0.59L244.67-0.59L244.67-0.59Q243.95-1.44 243.95-2.75" fill="#e15e67" stroke="none" stroke-width="none" transform="translate(-127.510009765625,10.969791346958711)" style="fill: rgb(225, 94, 103); animation-play-state: running; animation-delay: 0s;"></path></g><g class="path" style="transform: scale(0.91); transform-origin: 127.82px 8.05979px; animation: 1s linear 0s infinite normal forwards running breath-ed3adee8-5f50-4770-b133-22f5b96c4818;"><path d="M252.36-2.75L252.36-2.75L252.36-2.75Q252.36-4.06 253.32-5.06L253.32-5.06L253.32-5.06Q254.28-6.07 255.64-6.07L255.64-6.07L255.64-6.07Q258.30-6.07 258.30-3.36L258.30-3.36L258.30-3.36Q258.30-1.80 257.34-0.78L257.34-0.78L257.34-0.78Q256.37 0.25 255.08 0.25L255.08 0.25L255.08 0.25Q253.79 0.25 253.07-0.59L253.07-0.59L253.07-0.59Q252.36-1.44 252.36-2.75" fill="#e15e67" stroke="none" stroke-width="none" transform="translate(-127.510009765625,10.969791346958711)" style="fill: rgb(254, 217, 177); animation-play-state: running; animation-delay: 0s;"></path></g></g>
</g>
</g>
<style id="breath-ed3adee8-5f50-4770-b133-22f5b96c4818" data-anikit="">@keyframes breath-ed3adee8-5f50-4770-b133-22f5b96c4818
{
  0% {
    animation-timing-function: cubic-bezier(0.9647,0.2413,-0.0705,0.7911);
    transform: scale(0.9099999999999999);
  }
  51% {
    animation-timing-function: cubic-bezier(0.9226,0.2631,-0.0308,0.7628);
    transform: scale(1.02994);
  }
  100% {
    transform: scale(0.9099999999999999);
  }
}</style></svg>